<svg width="108" height="59" viewBox="0 0 108 59" fill="none" xmlns="http://www.w3.org/2000/svg">
<path d="M40.8775 1.74372H41.5747C42.1657 1.74372 42.5812 1.58469 42.5812 1.01224C42.5812 0.439803 42.1657 0.271698 41.5747 0.271698H40.8775V1.74372ZM40.4297 3.51562V0.0717416H41.6117C42.4103 0.0717416 43.0798 0.248971 43.0798 0.994051C43.0798 1.74372 42.4103 1.94816 41.6117 1.94816H40.8775V3.51562H40.4297Z" fill="#B47B43"/>
<path d="M43.6895 0.0717416H45.9979V0.285245H44.1373V1.61195H45.7301V1.82551H44.1373V3.30207H45.9979V3.51562H43.6895V0.0717416Z" fill="#B47B43"/>
<path d="M48.7255 2.5354C48.7255 2.00836 48.3378 1.79026 47.7145 1.79026H47.1974V1.60402H47.7052C48.1946 1.60402 48.5362 1.3632 48.5362 0.927065C48.5362 0.454546 48.2131 0.191053 47.6729 0.191053C47.5528 0.191053 47.4789 0.200122 47.3866 0.222793C47.2897 0.250111 47.1974 0.29551 47.1143 0.427284L46.6664 1.12697H46.5371L46.7495 0.227384C46.9988 0.0865405 47.3682 0.000220776 47.7283 0.000220776C48.5178 0.000220776 49.0118 0.25918 49.0118 0.854348C49.0118 1.31321 48.6286 1.61309 48.0422 1.67668V1.68127C48.7348 1.69034 49.2242 1.9493 49.2242 2.52174C49.2242 3.1215 48.7255 3.57129 47.7052 3.57129C47.2943 3.57129 46.9064 3.49404 46.648 3.34413L46.4355 2.44449H46.5648L46.9619 3.06697C47.0635 3.22595 47.2158 3.30321 47.322 3.335C47.419 3.36226 47.5297 3.38046 47.6637 3.38046C48.3793 3.38046 48.7255 3.06697 48.7255 2.5354Z" fill="#B47B43"/>
<path d="M49.9316 3.51562V0.0717416H50.3795V3.12489L52.4756 0.0717416H52.9234V3.51562H52.4756V0.462475L50.3795 3.51562H49.9316Z" fill="#B47B43"/>
<path d="M55.9985 0.285979H54.5165C54.5118 1.88071 54.3318 2.84842 54.1148 3.3028H55.9985V0.285979ZM53.6254 4.27051H53.4961L53.5331 3.3028H53.8516C54.1425 2.66218 54.2764 1.83072 54.2764 0.181466V0.072475H56.4464V3.3028H56.8803L56.9173 4.27051H56.788L56.4556 3.57083C56.4371 3.5345 56.4279 3.5163 56.3817 3.5163H54.0225C53.9855 3.5163 53.9671 3.52996 53.9486 3.57083L53.6254 4.27051Z" fill="#B47B43"/>
<path d="M57.5273 0.0717416H59.8358V0.285245H57.9752V1.61195H59.568V1.82551H57.9752V3.30207H59.8358V3.51562H57.5273V0.0717416Z" fill="#B47B43"/>
<path d="M60.498 0.0717416H60.9459V1.61195H62.9958V0.0717416H63.4436V3.51562H62.9958V1.82551H60.9459V3.51562H60.498V0.0717416Z" fill="#B47B43"/>
<path d="M64.3633 3.5163V0.0724192H64.8111V3.3028H66.7503V0.0724192H67.1981V3.3028H67.6321L67.669 4.27051H67.5398L67.2073 3.57083C67.1889 3.5345 67.1796 3.5163 67.1335 3.5163H64.3633Z" fill="#B47B43"/>
<path d="M68.2812 3.51562V0.0717416H68.7291V3.12489L70.8252 0.0717416H71.273V3.51562H70.8252V0.462475L68.7291 3.51562H68.2812Z" fill="#B47B43"/>
<path d="M72.1914 3.51562V0.0717416H72.6392V3.12489L74.7353 0.0717416H75.1832V3.51562H74.7353V0.462475L72.6392 3.51562H72.1914Z" fill="#B47B43"/>
<path d="M50.1837 8.76836C50.9178 8.76836 51.2779 8.51394 51.2779 7.98695C51.2779 7.45985 50.8809 7.24181 50.2438 7.24181H49.565V8.76836H50.1837ZM50.2345 7.05552C50.7239 7.05552 51.0655 6.81475 51.0655 6.37856C51.0655 5.9061 50.7008 5.72434 50.1375 5.72434H49.565V7.05552H50.2345ZM49.1172 8.96826V5.52443H50.2022C50.9917 5.52443 51.5411 5.71068 51.5411 6.3059C51.5411 6.76476 51.1579 7.06458 50.5715 7.12823V7.13277C51.2779 7.14184 51.7765 7.40085 51.7765 7.97329C51.7765 8.57299 51.301 8.96826 50.3223 8.96826H49.1172Z" fill="#B47B43"/>
<path d="M54.3134 7.45985L53.644 5.91511L52.9791 7.45985H54.3134ZM54.4058 7.67341H52.8868L52.3328 8.96826H52.0742L53.5655 5.49712H53.9441L55.4446 8.96826H54.9644L54.4058 7.67341Z" fill="#B47B43"/>
<path d="M56.9323 7.11457C57.5325 7.11457 57.9249 6.94647 57.9249 6.41943C57.9249 5.89238 57.5325 5.72434 56.9277 5.72434H56.4752V7.11457H56.9323ZM56.0273 8.96826V5.52438H56.9877C57.8187 5.52438 58.4235 5.71521 58.4235 6.3831C58.4235 6.91014 58.0265 7.1827 57.3894 7.25088L58.9914 8.96826H58.4143L56.8815 7.31447H56.4752V8.96826H56.0273Z" fill="#B47B43"/>
<path d="M59.5195 5.52438H59.9674V7.20996L59.9766 7.20089L62.0543 5.52438H62.3866L60.4522 7.08726L62.6545 8.96826H62.0173L59.9674 7.23722V8.96826H59.5195V5.52438Z" fill="#B47B43"/>
<path d="M63.1797 5.52438H63.6275V8.7547H65.4605V8.96826H63.1797V5.52438Z" fill="#B47B43"/>
<path d="M66.0469 5.52438H66.4947V8.96826H66.0469V5.52438Z" fill="#B47B43"/>
<path d="M0.288696 58.2507H32.7472L16.5179 20.9673L0.288696 58.2507ZM0 58.478L17.673 17.6141L35.3459 58.478H0Z" fill="#B47B43"/>
<path d="M49.0319 38.6439H64.3948L56.7133 20.9683L49.0319 38.6439ZM64.5102 38.8712H48.9165L40.4263 58.479H40.1953L57.8685 17.6152L75.5415 58.479H73.0581L64.5102 38.8712Z" fill="#B47B43"/>
<path d="M108 58.479H105.689V38.4733H83.5115V58.479H81.2012V18.695H83.5115V38.246H105.689V18.695H108V58.479Z" fill="#B47B43"/>
</svg>
