<svg width="233" height="117" viewBox="0 0 233 117" fill="none" xmlns="http://www.w3.org/2000/svg">
<path d="M88.0506 3.47894H89.5522C90.8252 3.47894 91.7202 3.16179 91.7202 2.02025C91.7202 0.878705 90.8252 0.543476 89.5522 0.543476H88.0506V3.47894ZM87.0859 7.01241V0.144729H89.6318C91.3522 0.144729 92.7942 0.498154 92.7942 1.98397C92.7942 3.47894 91.3522 3.88661 89.6318 3.88661H88.0506V7.01241H87.0859Z" fill="white"/>
<path d="M94.1055 0.144881H99.0778V0.570643H95.0701V3.21631H98.501V3.64218H95.0701V6.58668H99.0778V7.01256H94.1055V0.144881Z" fill="white"/>
<path d="M104.952 5.05555C104.952 4.00454 104.117 3.56963 102.774 3.56963H101.66V3.19823H102.754C103.808 3.19823 104.544 2.71799 104.544 1.84827C104.544 0.905988 103.848 0.380538 102.685 0.380538C102.426 0.380538 102.267 0.398623 102.068 0.443834C101.859 0.49831 101.66 0.588843 101.481 0.851624L100.517 2.2469H100.238L100.696 0.452988C101.233 0.172123 102.028 -1.23978e-05 102.804 -1.23978e-05C104.505 -1.23978e-05 105.569 0.516395 105.569 1.70326C105.569 2.6183 104.743 3.21631 103.48 3.34313V3.35228C104.972 3.37036 106.026 3.88677 106.026 5.02831C106.026 6.22433 104.952 7.12129 102.754 7.12129C101.869 7.12129 101.034 6.96724 100.477 6.66829L100.02 4.87426H100.298L101.153 6.1156C101.372 6.43264 101.7 6.58669 101.929 6.6501C102.138 6.70446 102.376 6.74074 102.665 6.74074C104.206 6.74074 104.952 6.1156 104.952 5.05555Z" fill="white"/>
<path d="M107.549 7.01241V0.144729H108.513V6.23322L113.028 0.144729H113.993V7.01241H113.028V0.923916L108.513 7.01241H107.549Z" fill="white"/>
<path d="M120.622 0.570575H117.43C117.42 3.75073 117.032 5.6805 116.565 6.58662H120.622V0.570575ZM115.511 8.51639H115.232L115.312 6.58662H115.998C116.625 5.30911 116.913 3.65104 116.913 0.36216V0.144813H121.587V6.58662H122.522L122.601 8.51639H122.323L121.607 7.12111C121.567 7.04866 121.547 7.01238 121.448 7.01238H116.366C116.287 7.01238 116.247 7.03962 116.207 7.12111L115.511 8.51639Z" fill="white"/>
<path d="M123.91 0.144881H128.882V0.570643H124.875V3.21631H128.306V3.64218H124.875V6.58668H128.882V7.01256H123.91V0.144881Z" fill="white"/>
<path d="M130.307 0.144881H131.271V3.21631H135.687V0.144881H136.651V7.01256H135.687V3.64218H131.271V7.01256H130.307V0.144881Z" fill="white"/>
<path d="M138.635 7.01238V0.144701H139.599V6.58662H143.776V0.144701H144.741V6.58662H145.676L145.755 8.51639H145.477L144.761 7.12111C144.721 7.04866 144.701 7.01238 144.602 7.01238H138.635Z" fill="white"/>
<path d="M147.07 7.01241V0.144729H148.035V6.23322L152.55 0.144729H153.514V7.01241H152.55V0.923916L148.035 7.01241H147.07Z" fill="white"/>
<path d="M155.496 7.01241V0.144729H156.461V6.23322L160.976 0.144729H161.94V7.01241H160.976V0.923916L156.461 7.01241H155.496Z" fill="white"/>
<path d="M108.096 17.4856C109.677 17.4856 110.453 16.9783 110.453 15.9274C110.453 14.8763 109.598 14.4415 108.225 14.4415H106.763V17.4856H108.096ZM108.206 14.0699C109.26 14.0699 109.995 13.5898 109.995 12.72C109.995 11.7778 109.21 11.4153 107.997 11.4153H106.763V14.0699H108.206ZM105.799 17.8843V11.0167H108.136C109.836 11.0167 111.02 11.3881 111.02 12.5751C111.02 13.4901 110.194 14.088 108.931 14.215V14.224C110.453 14.2421 111.527 14.7586 111.527 15.9001C111.527 17.096 110.503 17.8843 108.394 17.8843H105.799Z" fill="white"/>
<path d="M116.991 14.8763L115.549 11.7958L114.117 14.8763H116.991ZM117.19 15.3021H113.918L112.725 17.8843H112.168L115.38 10.9622H116.195L119.428 17.8843H118.393L117.19 15.3021Z" fill="white"/>
<path d="M122.633 14.1877C123.926 14.1877 124.771 13.8525 124.771 12.8015C124.771 11.7505 123.926 11.4153 122.623 11.4153H121.648V14.1877H122.633ZM120.684 17.8843V11.0166H122.752C124.542 11.0166 125.845 11.3972 125.845 12.729C125.845 13.78 124.99 14.3236 123.617 14.4595L127.068 17.8843H125.825L122.523 14.5864H121.648V17.8843H120.684Z" fill="white"/>
<path d="M128.201 11.0166H129.166V14.3779L129.186 14.3598L133.661 11.0166H134.377L130.21 14.1332L134.954 17.8843H133.581L129.166 14.4323V17.8843H128.201V11.0166Z" fill="white"/>
<path d="M136.086 11.0166H137.051V17.4584H140.999V17.8843H136.086V11.0166Z" fill="white"/>
<path d="M142.262 11.0166H143.226V17.8843H142.262V11.0166Z" fill="white"/>
<path d="M0.621835 116.162H70.5356L35.5787 41.8132L0.621835 116.162ZM0 116.616L38.0666 35.1264L76.1331 116.616H0Z" fill="white"/>
<path d="M105.612 77.0613H138.703L122.157 41.8132L105.612 77.0613ZM138.951 77.5146H105.363L87.0757 116.616H86.5781L124.645 35.1265L162.712 116.616H157.363L138.951 77.5146Z" fill="white"/>
<path d="M232.625 116.616H227.649V76.7212H179.879V116.616H174.902V37.2798H179.879V76.2678H227.649V37.2798H232.625V116.616Z" fill="white"/>
</svg>
